<mxfile host="Electron" agent="Mozilla/5.0 (Windows NT 10.0; Win64; x64) AppleWebKit/537.36 (KHTML, like Gecko) draw.io/24.7.17 Chrome/128.0.6613.36 Electron/32.0.1 Safari/537.36" version="24.7.17">
  <diagram name="Page-1" id="O8Fi4CR7WTIALdgcUa17">
    <mxGraphModel dx="2074" dy="1196" grid="1" gridSize="10" guides="1" tooltips="1" connect="1" arrows="1" fold="1" page="1" pageScale="1" pageWidth="850" pageHeight="1100" math="0" shadow="0">
      <root>
        <mxCell id="0" />
        <mxCell id="1" parent="0" />
        <mxCell id="xurmBqSEmlDCUtcijE4A-13" value="" style="edgeStyle=orthogonalEdgeStyle;rounded=0;orthogonalLoop=1;jettySize=auto;html=1;" edge="1" parent="1" source="xurmBqSEmlDCUtcijE4A-1" target="xurmBqSEmlDCUtcijE4A-2">
          <mxGeometry relative="1" as="geometry" />
        </mxCell>
        <mxCell id="xurmBqSEmlDCUtcijE4A-1" value="START" style="ellipse;whiteSpace=wrap;html=1;" vertex="1" parent="1">
          <mxGeometry x="330" y="10" width="120" height="80" as="geometry" />
        </mxCell>
        <mxCell id="xurmBqSEmlDCUtcijE4A-14" value="" style="edgeStyle=orthogonalEdgeStyle;rounded=0;orthogonalLoop=1;jettySize=auto;html=1;" edge="1" parent="1" source="xurmBqSEmlDCUtcijE4A-17" target="xurmBqSEmlDCUtcijE4A-3">
          <mxGeometry relative="1" as="geometry" />
        </mxCell>
        <mxCell id="xurmBqSEmlDCUtcijE4A-2" value="Nháº­p abc,total" style="shape=parallelogram;perimeter=parallelogramPerimeter;whiteSpace=wrap;html=1;fixedSize=1;" vertex="1" parent="1">
          <mxGeometry x="330" y="160" width="120" height="60" as="geometry" />
        </mxCell>
        <mxCell id="xurmBqSEmlDCUtcijE4A-8" style="edgeStyle=orthogonalEdgeStyle;rounded=0;orthogonalLoop=1;jettySize=auto;html=1;entryX=0.5;entryY=0;entryDx=0;entryDy=0;" edge="1" parent="1" source="xurmBqSEmlDCUtcijE4A-3" target="xurmBqSEmlDCUtcijE4A-5">
          <mxGeometry relative="1" as="geometry" />
        </mxCell>
        <mxCell id="xurmBqSEmlDCUtcijE4A-9" style="edgeStyle=orthogonalEdgeStyle;rounded=0;orthogonalLoop=1;jettySize=auto;html=1;entryX=0.5;entryY=0;entryDx=0;entryDy=0;" edge="1" parent="1" source="xurmBqSEmlDCUtcijE4A-3" target="xurmBqSEmlDCUtcijE4A-7">
          <mxGeometry relative="1" as="geometry" />
        </mxCell>
        <mxCell id="xurmBqSEmlDCUtcijE4A-3" value="a = 5&amp;nbsp;&lt;div&gt;b = 6&lt;/div&gt;&lt;div&gt;c = 7&lt;/div&gt;" style="rounded=0;whiteSpace=wrap;html=1;align=center;" vertex="1" parent="1">
          <mxGeometry x="330" y="440" width="120" height="60" as="geometry" />
        </mxCell>
        <mxCell id="xurmBqSEmlDCUtcijE4A-11" style="edgeStyle=orthogonalEdgeStyle;rounded=0;orthogonalLoop=1;jettySize=auto;html=1;" edge="1" parent="1" source="xurmBqSEmlDCUtcijE4A-5" target="xurmBqSEmlDCUtcijE4A-10">
          <mxGeometry relative="1" as="geometry" />
        </mxCell>
        <mxCell id="xurmBqSEmlDCUtcijE4A-5" value="a + 2" style="rounded=0;whiteSpace=wrap;html=1;" vertex="1" parent="1">
          <mxGeometry x="160" y="530" width="120" height="60" as="geometry" />
        </mxCell>
        <mxCell id="xurmBqSEmlDCUtcijE4A-12" style="edgeStyle=orthogonalEdgeStyle;rounded=0;orthogonalLoop=1;jettySize=auto;html=1;" edge="1" parent="1" source="xurmBqSEmlDCUtcijE4A-7" target="xurmBqSEmlDCUtcijE4A-10">
          <mxGeometry relative="1" as="geometry">
            <Array as="points">
              <mxPoint x="390" y="560" />
            </Array>
          </mxGeometry>
        </mxCell>
        <mxCell id="xurmBqSEmlDCUtcijE4A-7" value="c - 2" style="rounded=0;whiteSpace=wrap;html=1;" vertex="1" parent="1">
          <mxGeometry x="500" y="530" width="120" height="60" as="geometry" />
        </mxCell>
        <mxCell id="xurmBqSEmlDCUtcijE4A-16" value="" style="edgeStyle=orthogonalEdgeStyle;rounded=0;orthogonalLoop=1;jettySize=auto;html=1;" edge="1" parent="1" source="xurmBqSEmlDCUtcijE4A-10" target="xurmBqSEmlDCUtcijE4A-15">
          <mxGeometry relative="1" as="geometry" />
        </mxCell>
        <mxCell id="xurmBqSEmlDCUtcijE4A-10" value="total" style="shape=parallelogram;perimeter=parallelogramPerimeter;whiteSpace=wrap;html=1;fixedSize=1;" vertex="1" parent="1">
          <mxGeometry x="330" y="710" width="120" height="60" as="geometry" />
        </mxCell>
        <mxCell id="xurmBqSEmlDCUtcijE4A-15" value="END" style="ellipse;whiteSpace=wrap;html=1;" vertex="1" parent="1">
          <mxGeometry x="330" y="820" width="120" height="80" as="geometry" />
        </mxCell>
        <mxCell id="xurmBqSEmlDCUtcijE4A-18" value="" style="edgeStyle=orthogonalEdgeStyle;rounded=0;orthogonalLoop=1;jettySize=auto;html=1;" edge="1" parent="1" source="xurmBqSEmlDCUtcijE4A-2" target="xurmBqSEmlDCUtcijE4A-17">
          <mxGeometry relative="1" as="geometry">
            <mxPoint x="390" y="220" as="sourcePoint" />
            <mxPoint x="390" y="490" as="targetPoint" />
          </mxGeometry>
        </mxCell>
        <mxCell id="xurmBqSEmlDCUtcijE4A-17" value="total = 567" style="rounded=0;whiteSpace=wrap;html=1;" vertex="1" parent="1">
          <mxGeometry x="330" y="300" width="120" height="60" as="geometry" />
        </mxCell>
      </root>
    </mxGraphModel>
  </diagram>
</mxfile>
